<svg width="300px" height="300px" viewBox="0 0 240 240" version="1.1" xmlns="http://www.w3.org/2000/svg" xmlns:xlink="http://www.w3.org/1999/xlink"><title>Bottt</title><desc>Created with botttsgenerator.com</desc><g id="Bottt" stroke="none" stroke-width="1" fill="none" fill-rule="evenodd"><g id="Circle"><defs><circle id="Circle-path-1" cx="120" cy="120" r="120"></circle><path d="M12,160 C12,226.27417 65.72583,280 132,280 C198.27417,280 252,226.27417 252,160 L264,160 L264,-1.42108547e-14 L-3.19744231e-14,-1.42108547e-14 L-3.19744231e-14,160 L12,160 Z" id="Circle-path-2"></path><path d="M124,144.610951 L124,163 L128,163 L128,163 C167.764502,163 200,195.235498 200,235 L200,244 L0,244 L0,235 C-4.86974701e-15,195.235498 32.235498,163 72,163 L72,163 L76,163 L76,144.610951 C58.7626345,136.422372 46.3722246,119.687011 44.3051388,99.8812385 C38.4803105,99.0577866 34,94.0521096 34,88 L34,74 C34,68.0540074 38.3245733,63.1180731 44,62.1659169 L44,56 L44,56 C44,25.072054 69.072054,5.68137151e-15 100,0 L100,0 L100,0 C130.927946,-5.68137151e-15 156,25.072054 156,56 L156,62.1659169 C161.675427,63.1180731 166,68.0540074 166,74 L166,88 C166,94.0521096 161.51969,99.0577866 155.694861,99.8812385 C153.627775,119.687011 141.237365,136.422372 124,144.610951 Z" id="Circle-path-3"></path></defs><g><g id="Bottt" stroke-width="1" fill-rule="evenodd" mask="url(#Circle-main-2)"><g id="Bottt/Head" stroke="none" stroke-width="1" fill="none" fill-rule="evenodd" transform="translate(30.000000, 33.000000)"><g id="Sides" width="180px" height="76px" transform="translate(0.000000, 66.000000)"><g id="Sides/SquareAsymmetric" stroke="none" stroke-width="1" fill="none" fill-rule="evenodd"><path d="M160,15.0003274 C161.68664,15.0091031 162.317652,15.194108 162.953691,15.5342654 C163.605543,15.8828796 164.11712,16.3944567 164.465735,17.0463086 C164.814349,17.6981604 165,18.3447329 165,20.1277704 L165,39.8722296 C165,41.6552671 164.814349,42.3018396 164.465735,42.9536914 C164.11712,43.6055433 163.605543,44.1171204 162.953691,44.4657346 C162.317652,44.805892 161.68664,44.9908969 160,44.9996726 L160,54.8722296 C160,56.6552671 159.814349,57.3018396 159.465735,57.9536914 C159.11712,58.6055433 158.605543,59.1171204 157.953691,59.4657346 C157.30184,59.8143488 156.655267,60 154.87223,60 L129.12777,60 C127.344733,60 126.69816,59.8143488 126.046309,59.4657346 C125.394457,59.1171204 124.88288,58.6055433 124.534265,57.9536914 C124.185651,57.3018396 124,56.6552671 124,54.8722296 L124,5.1277704 C124,3.34473292 124.185651,2.69816044 124.534265,2.04630859 C124.88288,1.39445674 125.394457,0.882879593 126.046309,0.534265408 C126.69816,0.185651222 127.344733,1.2037061e-16 129.12777,-2.07168062e-16 L154.87223,2.07168062e-16 C156.655267,-1.2037061e-16 157.30184,0.185651222 157.953691,0.534265408 C158.605543,0.882879593 159.11712,1.39445674 159.465735,2.04630859 C159.814349,2.69816044 160,3.34473292 160,5.1277704 L160,15.0003274 Z M10,23 L10,12.1277704 C10,10.3447329 10.1856512,9.69816044 10.5342654,9.04630859 C10.8828796,8.39445674 11.3944567,7.88287959 12.0463086,7.53426541 C12.6981604,7.18565122 13.3447329,7 15.1277704,7 L30.8722296,7 C32.6552671,7 33.3018396,7.18565122 33.9536914,7.53426541 C34.6055433,7.88287959 35.1171204,8.39445674 35.4657346,9.04630859 C35.8143488,9.69816044 36,10.3447329 36,12.1277704 L36,28.1277704 L36,47.8722296 C36,49.6552671 35.8143488,50.3018396 35.4657346,50.9536914 C35.1171204,51.6055433 34.6055433,52.1171204 33.9536914,52.4657346 C33.3018396,52.8143488 32.6552671,53 30.8722296,53 L5.1277704,53 C3.34473292,53 2.69816044,52.8143488 2.04630859,52.4657346 C1.39445674,52.1171204 0.882879593,51.6055433 0.534265408,50.9536914 C0.185651222,50.3018396 8.02470732e-17,49.6552671 -1.38112041e-16,47.8722296 L1.38112041e-16,28.1277704 C-8.02470732e-17,26.3447329 0.185651222,25.6981604 0.534265408,25.0463086 C0.882879593,24.3944567 1.39445674,23.8828796 2.04630859,23.5342654 C2.69816044,23.1856512 3.34473292,23 5.1277704,23 L10,23 Z" id="Sides/SquareAsymmetric-path"></path><g id="Ears" transform="translate(10.000000, 8.000000)"><mask id="Sides/SquareAsymmetric-mask" fill="white"><use xlink:href="#Sides/SquareAsymmetric-path"></use></mask><use fill="#0076DE" xlink:href="#Sides/SquareAsymmetric-path"></use><g id="Pink" mask="url(#Sides/SquareAsymmetric-mask)" fill="#E91E63"><g transform="translate(-10.000000, -8.000000)"><rect x="0" y="0" width="180" height="76"></rect></g></g><rect id="Shadow" fill-opacity="0.1" fill="#000000" mask="url(#Sides/SquareAsymmetric-mask)" x="-10" y="39" width="180" height="29"></rect><circle id="Beep" fill-opacity="0.6" fill="#FFFFFF" mask="url(#Sides/SquareAsymmetric-mask)" cx="151" cy="12" r="5"></circle><circle id="Beep" fill-opacity="0.6" fill="#FFFFFF" mask="url(#Sides/SquareAsymmetric-mask)" cx="151" cy="28" r="5"></circle></g></g></g><g id="Top" transform="translate(41.000000, 0.000000)" width="100px" height="52px"><g id="Top/Pyramid" stroke="none" stroke-width="1" fill="none" fill-rule="evenodd"><defs><polygon id="Top/Pyramid-path" points="50 8 82 52 18 52"></polygon></defs><mask id="Top/Pyramid-mask" fill="white"><use xlink:href="#Top/Pyramid-path"></use></mask><use id="Triangle" fill="#E1E6E8" xlink:href="#Top/Pyramid-path"></use><g id="DeepOrange" mask="url(#Top/Pyramid-mask)" fill="#FF5722"><rect x="0" y="0" width="100" height="52"></rect></g><rect id="Highlight" fill-opacity="0.8" fill="#FFFFFF" mask="url(#Top/Pyramid-mask)" x="50" y="4" width="30" height="48"></rect></g></g><g id="Face" transform="translate(25.000000, 44.000000)" width="130px" height="120px"><g id="Face/Round-02" stroke="none" stroke-width="1" fill="none" fill-rule="evenodd"><path d="M0,89 C0,88.9795073 0.0141049326,89.1836401 0,90 C0.183374957,90.4764708 0.402008635,91.4971444 1,93 C1.82671155,96.0560243 3.7804036,99.5565275 7,103 C16.6943975,113.399831 35.1723647,120 65,120 C94.8276353,120 113.305603,113.399637 123,103 C126.219596,99.5565275 128.173198,96.0560243 129,93 C129.597973,91.4971251 129.816625,90.4764321 130,90 C129.985895,89.1836498 130,88.9795151 130,89 L130,50 C130,50.1036464 129.971788,49.4988099 130,49 C129.739042,46.8828777 129.471022,44.9851234 129,43 C127.813584,37.0088305 125.606104,31.0889814 122,26 C112.282973,9.66267383 94.2553094,0 65,0 C35.7447556,0 17.7163695,9.66228674 8,26 C4.39414151,31.089175 2.18649928,37.0088305 1,43 C0.529043306,44.9851234 0.26102792,46.8828583 0,49 C0.0282766705,49.4534424 6.49996895e-05,50.3228972 0,50 L0,89 Z" transform="translate(65.000000, 60.000000) scale(1, -1) translate(-65.000000, -60.000000) " id="Face/Round-02-path"></path><mask id="Face/Round-02-mask" fill="white"><use xlink:href="#Face/Round-02-path"></use></mask><use id="Round-and-Soft" fill="#E1E6E8" xlink:href="#Face/Round-02-path"></use><g id="LightBlue" mask="url(#Face/Round-02-mask)" fill="#03A9F4"><g transform="translate(-4.000000, -2.000000)"><rect x="0" y="0" width="138" height="124"></rect></g></g><g id="Texture/Dirty02" mask="url(#Face/Round-02-mask)" stroke="none" stroke-width="1" fill="none" fill-rule="evenodd"><path d="M-20,124.648555 C-16.811588,107.308454 -10.4531676,122.072947 4.84771523,119.016505 C11.6077,117.666158 6.14576431,111.768624 11.1876378,109.212567 C15.4464179,107.053511 21.2501186,108.793137 26.1285392,107.396795 C33.1688379,105.381661 33.076295,101.28213 39.6361103,100.669432 C45.8396348,100.090012 52.3384005,101.99941 58.5951182,101.28213 C70.4032792,99.9284239 65.5617357,82.0585087 74.4165368,78.902488 C83.2713379,75.7464674 97.8495674,81.1967462 99.7578423,90.1316754 C100.99805,95.938581 97.4744737,109.645353 89.187112,131.251992 L-20,131.251992" id="so-dirty" fill-opacity="0.2" fill="#000000" transform="translate(40.000000, 104.625996) scale(-1, 1) translate(-40.000000, -104.625996) "></path><path d="M-10,116.766616 C41.2432666,116.766616 46.5780646,90.9746332 71.7908251,79.1581974 C97.0035857,67.3417617 119.094139,97.9048577 127.570214,68.2121722 C133.220931,48.4170485 136.030775,69.3704236 135.999746,131.072298 L-10,131.072298 L-10,116.766616 Z" id="so-dirty" fill-opacity="0.1" fill="#000000" transform="translate(63.000000, 96.036149) scale(-1, 1) translate(-63.000000, -96.036149) "></path><path d="M81.2916974,3.17587305 C93.2275238,2.20079242 86.321669,13.9842725 91.0371454,13.9842725 C98.0044934,13.9842725 93.1398947,6.00620803 101.62,6.20478012 C103.83957,6.25675408 106.563717,8.14434394 106.732126,10.7089898 C107.093966,16.2193464 103.015188,25.7252553 108.570487,25.9952874 C113.749725,26.2470398 109.673776,16.3561956 110.214935,9.75934414 C110.524385,5.98709048 114.397472,3.0074528 117.183163,3.0074528 C124.754416,3.0074528 118.868741,18.7147098 124.318032,18.7147098 C129.767324,18.7147098 125.526609,9.66391004 129.399805,4.87149468 C133.902864,-0.700269812 148.699526,-3.44094345 138.149179,-6 L81,-6" id="so-dirty" fill-opacity="0.4" fill="#000000" transform="translate(111.433379, 10.000000) scale(-1, 1) translate(-111.433379, -10.000000) "></path></g></g></g><g id="Mouth" transform="translate(52.000000, 124.000000)" width="76px" height="32px"><g id="Mouth/Smile02" stroke="none" stroke-width="1" fill="none" fill-rule="evenodd"><path d="M18,10.2222222 C18,21.7845222 24.4740576,28 38,28 C51.5182433,28 58,21.6614595 58,10.2222222 C58,9.49621891 57.1738581,8 55,8 C39.2707408,8 29.1916598,8 21,8 C18.9490269,8 18,9.38479408 18,10.2222222 Z" id="Mouth/Smile02-path"></path><mask id="Mouth/Smile02-mask" fill="white"><use xlink:href="#Mouth/Smile02-path"></use></mask><use id="Mouth" fill-opacity="0.8" fill="#000000" xlink:href="#Mouth/Smile02-path"></use><rect id="Teeth" fill="#FFFFFF" mask="url(#Mouth/Smile02-mask)" x="30" y="2" width="16" height="14" rx="2"></rect></g></g><g id="Eyes" transform="translate(38.000000, 76.000000)" width="104px" height="48px"><g id="Eyes/Round-Frame-02" stroke="none" stroke-width="1" fill="none" fill-rule="evenodd"><rect id="Container" fill-opacity="0.8" fill="#000000" x="0" y="11" width="104" height="34" rx="17"></rect><circle id="Cornea" fill="#F1EEDA" cx="29" cy="28" r="13"></circle><circle id="Cornea" fill="#F1EEDA" cx="75" cy="28" r="13"></circle><rect id="Iris" fill-opacity="0.8" fill="#000000" x="24" y="23" width="10" height="10" rx="2"></rect><rect id="Iris" fill-opacity="0.8" fill="#000000" x="70" y="23" width="10" height="10" rx="2"></rect></g></g></g></g></g></g></g></svg>