<svg width="300px" height="300px" viewBox="0 0 240 240" version="1.1" xmlns="http://www.w3.org/2000/svg" xmlns:xlink="http://www.w3.org/1999/xlink"><title>Bottt</title><desc>Created with botttsgenerator.com</desc><g id="Bottt" stroke="none" stroke-width="1" fill="none" fill-rule="evenodd"><g id="Circle"><defs><circle id="Circle-path-1" cx="120" cy="120" r="120"></circle><path d="M12,160 C12,226.27417 65.72583,280 132,280 C198.27417,280 252,226.27417 252,160 L264,160 L264,-1.42108547e-14 L-3.19744231e-14,-1.42108547e-14 L-3.19744231e-14,160 L12,160 Z" id="Circle-path-2"></path><path d="M124,144.610951 L124,163 L128,163 L128,163 C167.764502,163 200,195.235498 200,235 L200,244 L0,244 L0,235 C-4.86974701e-15,195.235498 32.235498,163 72,163 L72,163 L76,163 L76,144.610951 C58.7626345,136.422372 46.3722246,119.687011 44.3051388,99.8812385 C38.4803105,99.0577866 34,94.0521096 34,88 L34,74 C34,68.0540074 38.3245733,63.1180731 44,62.1659169 L44,56 L44,56 C44,25.072054 69.072054,5.68137151e-15 100,0 L100,0 L100,0 C130.927946,-5.68137151e-15 156,25.072054 156,56 L156,62.1659169 C161.675427,63.1180731 166,68.0540074 166,74 L166,88 C166,94.0521096 161.51969,99.0577866 155.694861,99.8812385 C153.627775,119.687011 141.237365,136.422372 124,144.610951 Z" id="Circle-path-3"></path></defs><g><g id="Bottt" stroke-width="1" fill-rule="evenodd" mask="url(#Circle-main-2)"><g id="Bottt/Head" stroke="none" stroke-width="1" fill="none" fill-rule="evenodd" transform="translate(30.000000, 33.000000)"><g id="Sides" width="180px" height="76px" transform="translate(0.000000, 66.000000)"><g id="Sides/Cables01" stroke="none" stroke-width="1" fill="none" fill-rule="evenodd"><path d="M2,29 L14,29 C15.1045695,29 16,29.8954305 16,31 L16,49 C16,50.1045695 15.1045695,51 14,51 L2,51 C0.8954305,51 1.3527075e-16,50.1045695 0,49 L0,31 C-1.3527075e-16,29.8954305 0.8954305,29 2,29 Z M117,36 L136,36 C137.104569,36 138,36.8954305 138,38 L138,56 C138,57.1045695 137.104569,58 136,58 L117,58 C115.895431,58 115,57.1045695 115,56 L115,38 C115,36.8954305 115.895431,36 117,36 Z M117,0 L136,0 C137.104569,-2.02906125e-16 138,0.8954305 138,2 L138,16 C138,17.1045695 137.104569,18 136,18 L117,18 C115.895431,18 115,17.1045695 115,16 L115,2 C115,0.8954305 115.895431,2.02906125e-16 117,0 Z" id="Sides/Cables01-path"></path><g id="Cables-Left" opacity="0.9" transform="translate(13.000000, 11.000000)" stroke="#2A3544" stroke-width="6"><path d="M25,1 C22.0459826,12.6966281 5.09589655,7.66625764 1.63133076,19.0090388 C-1.83323502,30.35182 9.65649568,39 19.1552405,39" id="Cable"></path></g><g id="Cables-Right" opacity="0.9" transform="translate(150.000000, 19.000000)" stroke="#2A3544" stroke-width="4"><path d="M0,36 C8.39445109,39.4863785 20.1016531,28.4063428 16,19.5 C11.8983469,10.5936572 0,12.8056069 0,0.195051106" id="Cable"></path></g><g id="Connectors" transform="translate(21.000000, 6.000000)"><mask id="Sides/Cables01-mask" fill="white"><use xlink:href="#Sides/Cables01-path"></use></mask><use fill="#273951" xlink:href="#Sides/Cables01-path"></use><g id="Blue" mask="url(#Sides/Cables01-mask)" fill="#2196F3"><g transform="translate(-21.000000, -6.000000)"><rect x="0" y="0" width="180" height="76"></rect></g></g></g></g></g><g id="Top" transform="translate(41.000000, 0.000000)" width="100px" height="52px"><g id="Top/Horns" stroke="none" stroke-width="1" fill="none" fill-rule="evenodd"><defs><path d="M71.2103664,40 C78.849875,33.2931152 84.6313286,20.6881892 84,14 C83.8634599,12.5535174 85.9998112,12.299289 87,14 C90.3310591,19.6640994 91.0533229,28.3307631 89.1667915,39.9999912 L92,40 L92,52 L66,52 L66,40 L71.2103664,40 Z M11.2146853,40 C9.04339114,28.3168723 9.78304742,19.6838312 13.4336542,14.1008765 C14.3353248,12.7219314 16.5210219,12.6807087 16.5210219,13.7408438 C16.5210219,21.2733229 21.4918044,33.4449643 29.2618055,40 L34,40 L34,52 L8,52 L8,40 L11.2146853,40 Z" id="Top/Horns-path"></path></defs><mask id="Top/Horns-mask" fill="white"><use xlink:href="#Top/Horns-path"></use></mask><use id="Horns" fill="#E1E6E8" xlink:href="#Top/Horns-path"></use><g id="Indigo" mask="url(#Top/Horns-mask)" fill="#3F51B5"><rect x="0" y="0" width="100" height="52"></rect></g><rect id="Shadow" fill-opacity="0.4" fill="#000000" mask="url(#Top/Horns-mask)" x="0" y="40" width="100" height="12"></rect><path d="M15.4558151,13 L31.5688672,13 L31.5688672,40 L20.8200683,40 C15.8541795,34.7666145 14.0660951,25.7666145 15.4558151,13 Z" id="Light" fill-opacity="0.4" fill="#FFFFFF" mask="url(#Top/Horns-mask)"></path><path d="M84.8200683,13 L92.5688672,13 L92.5688672,40 L81.8200683,40 C85.6540878,34.7964297 86.6540878,25.7964297 84.8200683,13 Z" id="Light" fill-opacity="0.4" fill="#FFFFFF" mask="url(#Top/Horns-mask)"></path></g></g><g id="Face" transform="translate(25.000000, 44.000000)" width="130px" height="120px"><g id="Face/Round-02" stroke="none" stroke-width="1" fill="none" fill-rule="evenodd"><path d="M0,89 C0,88.9795073 0.0141049326,89.1836401 0,90 C0.183374957,90.4764708 0.402008635,91.4971444 1,93 C1.82671155,96.0560243 3.7804036,99.5565275 7,103 C16.6943975,113.399831 35.1723647,120 65,120 C94.8276353,120 113.305603,113.399637 123,103 C126.219596,99.5565275 128.173198,96.0560243 129,93 C129.597973,91.4971251 129.816625,90.4764321 130,90 C129.985895,89.1836498 130,88.9795151 130,89 L130,50 C130,50.1036464 129.971788,49.4988099 130,49 C129.739042,46.8828777 129.471022,44.9851234 129,43 C127.813584,37.0088305 125.606104,31.0889814 122,26 C112.282973,9.66267383 94.2553094,0 65,0 C35.7447556,0 17.7163695,9.66228674 8,26 C4.39414151,31.089175 2.18649928,37.0088305 1,43 C0.529043306,44.9851234 0.26102792,46.8828583 0,49 C0.0282766705,49.4534424 6.49996895e-05,50.3228972 0,50 L0,89 Z" transform="translate(65.000000, 60.000000) scale(1, -1) translate(-65.000000, -60.000000) " id="Face/Round-02-path"></path><mask id="Face/Round-02-mask" fill="white"><use xlink:href="#Face/Round-02-path"></use></mask><use id="Round-and-Soft" fill="#E1E6E8" xlink:href="#Face/Round-02-path"></use><g id="Amber" mask="url(#Face/Round-02-mask)" fill="#FFC107"><g transform="translate(-4.000000, -2.000000)"><rect x="0" y="0" width="138" height="124"></rect></g></g><g id="Texture/Circuits" mask="url(#Face/Round-02-mask)" stroke="none" stroke-width="1" fill="none" fill-rule="evenodd"><path d="M72.4160437,34 L23,34 L19,34 L19,0 L23,0 L23,30 L72.4160437,30 C73.1876003,28.2340952 74.949681,27 77,27 C79.7614237,27 82,29.2385763 82,32 C82,34.7614237 79.7614237,37 77,37 C74.949681,37 73.1876003,35.7659048 72.4160437,34 Z M11,0 L15,0 L15,18 L11,18 L11,0 Z" id="Beep-Boop" fill-opacity="0.1" fill="#000000"></path><path d="M122,34.5839563 L122,60 L141,60 L141,64 L122,64 L118,64 L118,34.5839563 C116.234095,33.8123997 115,32.050319 115,30 C115,27.2385763 117.238576,25 120,25 C122.761424,25 125,27.2385763 125,30 C125,32.050319 123.765905,33.8123997 122,34.5839563 Z" id="Beep-Boop" fill-opacity="0.2" fill="#FFFFFF"></path><path d="M114,68 L141,68 L141,72 L114,72 L110,72 L110,46 L114,46 L114,68 Z" id="Beep-Boop" fill-opacity="0.2" fill="#000000"></path><path d="M15,103.583956 L15,129 L34,129 L34,133 L15,133 L11,133 L11,103.583956 C9.23409522,102.8124 8,101.050319 8,99 C8,96.2385763 10.2385763,94 13,94 C15.7614237,94 18,96.2385763 18,99 C18,101.050319 16.7659048,102.8124 15,103.583956 Z" id="Beep-Boop" fill-opacity="0.2" fill="#000000" transform="translate(21.000000, 113.500000) scale(-1, 1) translate(-21.000000, -113.500000) "></path></g></g></g><g id="Mouth" transform="translate(52.000000, 124.000000)" width="76px" height="32px"><g id="Mouth/Grill01" stroke="none" stroke-width="1" fill="none" fill-rule="evenodd"><g id="Grill" transform="translate(12.000000, 12.000000)" fill="#000000"><rect x="0" y="0" width="4" height="8" rx="2"></rect><rect x="24" y="0" width="4" height="8" rx="2"></rect><rect x="12" y="0" width="4" height="8" rx="2"></rect><rect x="36" y="0" width="4" height="8" rx="2"></rect><rect x="48" y="0" width="4" height="8" rx="2"></rect></g></g></g><g id="Eyes" transform="translate(38.000000, 76.000000)" width="104px" height="48px"><g id="Eyes/Round" stroke="none" stroke-width="1" fill="none" fill-rule="evenodd"><g id="Eye" transform="translate(18.000000, 24.000000)" fill="#FFFFFF"><circle cx="6" cy="6" r="6"></circle><circle cx="62" cy="6" r="6"></circle></g></g></g></g></g></g></g></g></svg>