<svg xmlns="http://www.w3.org/2000/svg" xmlns:xlink="http://www.w3.org/1999/xlink" viewBox="0 0 64 64"><defs><linearGradient id="uknbvX5qZhXjlvpupdEorc" x1="32" x2="32" y1="1.304" y2="63.304" gradientUnits="userSpaceOnUse"><stop offset="0" stop-color="#ffe100"></stop><stop offset="1" stop-color="#f98900"></stop></linearGradient><linearGradient id="uknbvX5qZhXjlvpupdEord" x1="32" x2="32" y1="43.019" y2="34.298" gradientUnits="userSpaceOnUse"><stop offset="0" stop-color="#911625"></stop><stop offset=".412" stop-color="#69101b"></stop><stop offset=".788" stop-color="#4b0c13"></stop><stop offset="1" stop-color="#400a10"></stop></linearGradient><linearGradient id="uknbvX5qZhXjlvpupdEora" x1="15.935" x2="15.935" y1="22.937" y2="62.102" gradientUnits="userSpaceOnUse"><stop offset="0" stop-color="#8ad4ff"></stop><stop offset=".535" stop-color="#3e9ff5"></stop><stop offset="1" stop-color="#0073ed"></stop></linearGradient><linearGradient id="uknbvX5qZhXjlvpupdEore" x1="48" x2="48" y1="22.825" y2="61.873" xlink:href="#uknbvX5qZhXjlvpupdEora"></linearGradient><linearGradient id="uknbvX5qZhXjlvpupdEorb" x1="3.584" x2="13.315" y1="66.425" y2="60.632" gradientUnits="userSpaceOnUse"><stop offset="0" stop-color="#8ad4ff"></stop><stop offset=".26" stop-color="#5ab3f9"></stop><stop offset=".745" stop-color="#0577ee"></stop><stop offset="1" stop-color="#0073ed"></stop></linearGradient><linearGradient id="uknbvX5qZhXjlvpupdEorf" x1="58.765" x2="51.312" y1="67.207" y2="61.835" xlink:href="#uknbvX5qZhXjlvpupdEorb"></linearGradient></defs><g data-name="25-Loudly Crying Face"><path fill="url(#uknbvX5qZhXjlvpupdEorc)" d="M32,63C4.3,63,.962,39,1,33V31C.962,25,4.3,1,32,1h0C59.7,1,63.038,25,63,31v2C63.038,39,59.7,63,32,63Z"></path><path fill="url(#uknbvX5qZhXjlvpupdEord)" d="M44,45.16c.04.53-.37.95-.8.81C41.44,45.41,37.07,43,32,43s-9.44,2.41-11.2,2.97c-.43.14-.84-.28-.8-.81a12.428,12.428,0,0,1,.61-3.02,11.636,11.636,0,0,1,3.4-5.03,11.819,11.819,0,0,1,15.98,0,11.636,11.636,0,0,1,3.4,5.03A12.428,12.428,0,0,1,44,45.16Z"></path><path fill="url(#uknbvX5qZhXjlvpupdEora)" d="M17,59.95a34.025,34.025,0,0,0,13.87,3.04V63H3a1.955,1.955,0,0,1-1.41-.59,1.98,1.98,0,0,1,0-2.82A1.955,1.955,0,0,1,3,59a4,4,0,0,0,4-4V51.58C7.07,32.87,12,24,12,24l-.08-.17a33.052,33.052,0,0,1,8.99-2.57c-.46,1.42-2.57,8.62-3.48,23.75C17.17,49.33,17,54.29,17,59.95Z"></path><path fill="url(#uknbvX5qZhXjlvpupdEore)" d="M47,59.95c0-5.66-.17-10.62-.43-14.94-.91-15.13-3.02-22.33-3.48-23.75a33.052,33.052,0,0,1,8.99,2.57L52,24s4.93,8.87,5,27.58V55a4,4,0,0,0,4,4,2,2,0,0,1,0,4H33v-.01A33.916,33.916,0,0,0,47,59.95Z"></path><path fill="url(#uknbvX5qZhXjlvpupdEorb)" d="M18,60.4c-.137-.058-.265-.124-.4-.184-.2-.088-.406-.172-.6-.264v-.012A25.834,25.834,0,0,1,7,51.571V55a4,4,0,0,1-4,4,1.955,1.955,0,0,0-1.41.59,1.98,1.98,0,0,0,0,2.82A1.955,1.955,0,0,0,3,63H30.87v-.01A34.4,34.4,0,0,1,17.6,60.214C17.735,60.274,17.863,60.34,18,60.4Z"></path><path fill="url(#uknbvX5qZhXjlvpupdEorf)" d="M62.41,59.59A1.955,1.955,0,0,0,61,59a4,4,0,0,1-4-4V51.571a25.834,25.834,0,0,1-10,8.367v.012c-.2.1-.421.185-.631.278-.124.056-.242.116-.369.17.127-.054.245-.114.369-.17A34.3,34.3,0,0,1,33,62.99V63H61a1.994,1.994,0,0,0,1.41-3.41Z"></path><path fill="#1d1d1b" d="M55.9,12.6c-.5-.671-1.037-1.319-1.589-1.925l1.478-1.348c.6.654,1.172,1.353,1.713,2.075Z"></path><path fill="#1d1d1b" d="M6.188,52.168A34.989,34.989,0,0,1,0,32.993V31C-.033,26.046,1.831,15.72,9.023,8.479,14.612,2.853,22.342,0,32,0c8.913,0,16.2,2.439,21.671,7.249l-1.321,1.5C47.258,4.271,40.412,2,32,2,22.9,2,15.642,4.654,10.442,9.889,3.712,16.663,1.969,26.342,2,30.993V33A33.158,33.158,0,0,0,7.812,51Z"></path><path fill="#1d1d1b" d="M55.443,26.831A31.216,31.216,0,0,0,40,22V20a32.7,32.7,0,0,1,16.556,5.169Z"></path><path fill="#1d1d1b" d="M56,21c-12.636,0-14.881-8.4-14.97-8.758l1.939-.49C43.046,12.049,44.989,19,56,19Z"></path><path fill="#1d1d1b" d="M43.369,47a1.555,1.555,0,0,1-.469-.073c-.43-.138-.948-.354-1.6-.626A24.208,24.208,0,0,0,32,44a24.208,24.208,0,0,0-9.3,2.3c-.656.272-1.174.488-1.6.625a1.53,1.53,0,0,1-1.433-.268,1.825,1.825,0,0,1-.663-1.581,13.385,13.385,0,0,1,.658-3.261h0a12.646,12.646,0,0,1,3.68-5.462,12.842,12.842,0,0,1,17.313,0,12.634,12.634,0,0,1,3.679,5.46,13.387,13.387,0,0,1,.658,3.26,1.825,1.825,0,0,1-.663,1.582A1.541,1.541,0,0,1,43.369,47ZM32,35a11.273,11.273,0,0,0-10.442,7.46h0a11.194,11.194,0,0,0-.519,2.362c.265-.1.568-.23.9-.367A26.3,26.3,0,0,1,32,42a26.3,26.3,0,0,1,10.063,2.455c.33.137.633.263.9.367a11.194,11.194,0,0,0-.519-2.362A11.271,11.271,0,0,0,32,35Z"></path><path fill="#1d1d1b" d="M61,64H33V62H61a1,1,0,0,0,0-2,5.006,5.006,0,0,1-5-5V52c0-18.459-4.826-27.428-4.875-27.516l1.749-.969C53.083,23.892,58,32.96,58,52v3a3,3,0,0,0,3,3,3,3,0,0,1,0,6Z"></path><path fill="#1d1d1b" d="M8.557,26.831,7.444,25.169A32.7,32.7,0,0,1,24,20v2A31.216,31.216,0,0,0,8.557,26.831Z"></path><path fill="#1d1d1b" d="M8,21V19c11.011,0,12.954-6.951,13.031-7.248l1.939.49C22.881,12.6,20.636,21,8,21Z"></path><path fill="#1d1d1b" d="M57.812,52.168,56.188,51A33.152,33.152,0,0,0,62,33.007V30.89a33.5,33.5,0,0,0-4.789-16.362l1.7-1.056A35.475,35.475,0,0,1,64,30.89V33A34.984,34.984,0,0,1,57.812,52.168Z"></path><path fill="#1d1d1b" d="M32,64a35.962,35.962,0,0,1-15.127-3.008A1,1,0,0,1,16,60c0-27.855,3.895-38.886,4.06-39.342l1.88.683C21.9,21.449,18.066,32.388,18,59.308A34.208,34.208,0,0,0,32,62a34.208,34.208,0,0,0,14-2.692c-.065-26.92-3.9-37.859-3.939-37.967l1.88-.683C44.105,21.114,48,32.13,48,59.944V60a1,1,0,0,1-.873.992A35.962,35.962,0,0,1,32,64Z"></path><path fill="#1d1d1b" d="M31,64H3a3,3,0,0,1,0-6,3,3,0,0,0,3-3V52c0-19.04,4.917-28.108,5.126-28.485l1.749.969C12.826,24.572,8,33.541,8,52v3a5.006,5.006,0,0,1-5,5,1,1,0,0,0,0,2H31Z"></path></g></svg>