<svg width="300px" height="300px" viewBox="0 0 240 240" version="1.1" xmlns="http://www.w3.org/2000/svg" xmlns:xlink="http://www.w3.org/1999/xlink"><title>Bottt</title><desc>Created with botttsgenerator.com</desc><g id="Bottt" stroke="none" stroke-width="1" fill="none" fill-rule="evenodd"><g id="Circle"><defs><circle id="Circle-path-1" cx="120" cy="120" r="120"></circle><path d="M12,160 C12,226.27417 65.72583,280 132,280 C198.27417,280 252,226.27417 252,160 L264,160 L264,-1.42108547e-14 L-3.19744231e-14,-1.42108547e-14 L-3.19744231e-14,160 L12,160 Z" id="Circle-path-2"></path><path d="M124,144.610951 L124,163 L128,163 L128,163 C167.764502,163 200,195.235498 200,235 L200,244 L0,244 L0,235 C-4.86974701e-15,195.235498 32.235498,163 72,163 L72,163 L76,163 L76,144.610951 C58.7626345,136.422372 46.3722246,119.687011 44.3051388,99.8812385 C38.4803105,99.0577866 34,94.0521096 34,88 L34,74 C34,68.0540074 38.3245733,63.1180731 44,62.1659169 L44,56 L44,56 C44,25.072054 69.072054,5.68137151e-15 100,0 L100,0 L100,0 C130.927946,-5.68137151e-15 156,25.072054 156,56 L156,62.1659169 C161.675427,63.1180731 166,68.0540074 166,74 L166,88 C166,94.0521096 161.51969,99.0577866 155.694861,99.8812385 C153.627775,119.687011 141.237365,136.422372 124,144.610951 Z" id="Circle-path-3"></path></defs><g><g id="Bottt" stroke-width="1" fill-rule="evenodd" mask="url(#Circle-main-2)"><g id="Bottt/Head" stroke="none" stroke-width="1" fill="none" fill-rule="evenodd" transform="translate(30.000000, 33.000000)"><g id="Sides" width="180px" height="76px" transform="translate(0.000000, 66.000000)"><g id="Sides/SquareAsymmetric" stroke="none" stroke-width="1" fill="none" fill-rule="evenodd"><path d="M160,15.0003274 C161.68664,15.0091031 162.317652,15.194108 162.953691,15.5342654 C163.605543,15.8828796 164.11712,16.3944567 164.465735,17.0463086 C164.814349,17.6981604 165,18.3447329 165,20.1277704 L165,39.8722296 C165,41.6552671 164.814349,42.3018396 164.465735,42.9536914 C164.11712,43.6055433 163.605543,44.1171204 162.953691,44.4657346 C162.317652,44.805892 161.68664,44.9908969 160,44.9996726 L160,54.8722296 C160,56.6552671 159.814349,57.3018396 159.465735,57.9536914 C159.11712,58.6055433 158.605543,59.1171204 157.953691,59.4657346 C157.30184,59.8143488 156.655267,60 154.87223,60 L129.12777,60 C127.344733,60 126.69816,59.8143488 126.046309,59.4657346 C125.394457,59.1171204 124.88288,58.6055433 124.534265,57.9536914 C124.185651,57.3018396 124,56.6552671 124,54.8722296 L124,5.1277704 C124,3.34473292 124.185651,2.69816044 124.534265,2.04630859 C124.88288,1.39445674 125.394457,0.882879593 126.046309,0.534265408 C126.69816,0.185651222 127.344733,1.2037061e-16 129.12777,-2.07168062e-16 L154.87223,2.07168062e-16 C156.655267,-1.2037061e-16 157.30184,0.185651222 157.953691,0.534265408 C158.605543,0.882879593 159.11712,1.39445674 159.465735,2.04630859 C159.814349,2.69816044 160,3.34473292 160,5.1277704 L160,15.0003274 Z M10,23 L10,12.1277704 C10,10.3447329 10.1856512,9.69816044 10.5342654,9.04630859 C10.8828796,8.39445674 11.3944567,7.88287959 12.0463086,7.53426541 C12.6981604,7.18565122 13.3447329,7 15.1277704,7 L30.8722296,7 C32.6552671,7 33.3018396,7.18565122 33.9536914,7.53426541 C34.6055433,7.88287959 35.1171204,8.39445674 35.4657346,9.04630859 C35.8143488,9.69816044 36,10.3447329 36,12.1277704 L36,28.1277704 L36,47.8722296 C36,49.6552671 35.8143488,50.3018396 35.4657346,50.9536914 C35.1171204,51.6055433 34.6055433,52.1171204 33.9536914,52.4657346 C33.3018396,52.8143488 32.6552671,53 30.8722296,53 L5.1277704,53 C3.34473292,53 2.69816044,52.8143488 2.04630859,52.4657346 C1.39445674,52.1171204 0.882879593,51.6055433 0.534265408,50.9536914 C0.185651222,50.3018396 8.02470732e-17,49.6552671 -1.38112041e-16,47.8722296 L1.38112041e-16,28.1277704 C-8.02470732e-17,26.3447329 0.185651222,25.6981604 0.534265408,25.0463086 C0.882879593,24.3944567 1.39445674,23.8828796 2.04630859,23.5342654 C2.69816044,23.1856512 3.34473292,23 5.1277704,23 L10,23 Z" id="Sides/SquareAsymmetric-path"></path><g id="Ears" transform="translate(10.000000, 8.000000)"><mask id="Sides/SquareAsymmetric-mask" fill="white"><use xlink:href="#Sides/SquareAsymmetric-path"></use></mask><use fill="#0076DE" xlink:href="#Sides/SquareAsymmetric-path"></use><g id="Indigo" mask="url(#Sides/SquareAsymmetric-mask)" fill="#3F51B5"><g transform="translate(-10.000000, -8.000000)"><rect x="0" y="0" width="180" height="76"></rect></g></g><rect id="Shadow" fill-opacity="0.1" fill="#000000" mask="url(#Sides/SquareAsymmetric-mask)" x="-10" y="39" width="180" height="29"></rect><circle id="Beep" fill-opacity="0.6" fill="#FFFFFF" mask="url(#Sides/SquareAsymmetric-mask)" cx="151" cy="12" r="5"></circle><circle id="Beep" fill-opacity="0.6" fill="#FFFFFF" mask="url(#Sides/SquareAsymmetric-mask)" cx="151" cy="28" r="5"></circle></g></g></g><g id="Top" transform="translate(41.000000, 0.000000)" width="100px" height="52px"><g id="Top/Bulb-01" stroke="none" stroke-width="1" fill="none" fill-rule="evenodd"><path d="M70,36 L79,36 C79.5522847,36 80,36.4477153 80,37 L80,51 C80,51.5522847 79.5522847,52 79,52 L21,52 C20.4477153,52 20,51.5522847 20,51 L20,37 C20,36.4477153 20.4477153,36 21,36 L30,36 L30,33 C30,21.954305 38.954305,13 50,13 C61.045695,13 70,21.954305 70,33 L70,36 Z" id="Top/Bulb-01-path"></path><mask id="Top/Bulb-01-mask" fill="white"><use xlink:href="#Top/Bulb-01-path"></use></mask><use id="Bulb-Mask" fill="#59C4FF" xlink:href="#Top/Bulb-01-path"></use><g id="BlueGrey" mask="url(#Top/Bulb-01-mask)" fill="#607D8B"><rect x="0" y="0" width="100" height="52"></rect></g><path d="M50,36 C52.209139,36 54,35.0279942 54,31.7142857 C54,28.4005772 52.209139,24 50,24 C47.790861,24 46,28.4005772 46,31.7142857 C46,35.0279942 47.790861,36 50,36 Z" id="Light" fill-opacity="0.6" fill="#FFFFFF" mask="url(#Top/Bulb-01-mask)"></path><rect id="Highlight" fill-opacity="0.4" fill="#FFFFFF" mask="url(#Top/Bulb-01-mask)" x="20" y="13" width="60" height="23"></rect><path d="M50,15.5 C54.9315485,15.5 59.3660426,17.6281427 62.4352098,21.0161556 M64.8733745,24.5107242 C65.5630474,25.8293043 66.0825179,27.2509729 66.4026217,28.7465657" id="Reflection" stroke="#FFFFFF" stroke-width="2" stroke-linecap="round" mask="url(#Top/Bulb-01-mask)"></path></g></g><g id="Face" transform="translate(25.000000, 44.000000)" width="130px" height="120px"><g id="Face/Square-01" stroke="none" stroke-width="1" fill="none" fill-rule="evenodd"><rect id="Face/Square-01-path-1" x="0" y="0" width="130" height="120" rx="18"></rect><mask id="Face/Square-01-mask-1" fill="white"><use xlink:href="#Face/Square-01-path-1"></use></mask><use id="Shape" fill="#0076DE" xlink:href="#Face/Square-01-path-1"></use><g id="BlueGrey" mask="url(#Face/Square-01-mask-1)" fill="#607D8B"><g transform="translate(-2.000000, -2.000000)"><rect x="0" y="0" width="134" height="124"></rect></g></g><g id="Texture/Circuits" mask="url(#Face/Square-01-mask-1)" stroke="none" stroke-width="1" fill="none" fill-rule="evenodd"><path d="M72.4160437,34 L23,34 L19,34 L19,0 L23,0 L23,30 L72.4160437,30 C73.1876003,28.2340952 74.949681,27 77,27 C79.7614237,27 82,29.2385763 82,32 C82,34.7614237 79.7614237,37 77,37 C74.949681,37 73.1876003,35.7659048 72.4160437,34 Z M11,0 L15,0 L15,18 L11,18 L11,0 Z" id="Beep-Boop" fill-opacity="0.1" fill="#000000"></path><path d="M122,34.5839563 L122,60 L141,60 L141,64 L122,64 L118,64 L118,34.5839563 C116.234095,33.8123997 115,32.050319 115,30 C115,27.2385763 117.238576,25 120,25 C122.761424,25 125,27.2385763 125,30 C125,32.050319 123.765905,33.8123997 122,34.5839563 Z" id="Beep-Boop" fill-opacity="0.2" fill="#FFFFFF"></path><path d="M114,68 L141,68 L141,72 L114,72 L110,72 L110,46 L114,46 L114,68 Z" id="Beep-Boop" fill-opacity="0.2" fill="#000000"></path><path d="M15,103.583956 L15,129 L34,129 L34,133 L15,133 L11,133 L11,103.583956 C9.23409522,102.8124 8,101.050319 8,99 C8,96.2385763 10.2385763,94 13,94 C15.7614237,94 18,96.2385763 18,99 C18,101.050319 16.7659048,102.8124 15,103.583956 Z" id="Beep-Boop" fill-opacity="0.2" fill="#000000" transform="translate(21.000000, 113.500000) scale(-1, 1) translate(-21.000000, -113.500000) "></path></g></g></g><g id="Mouth" transform="translate(52.000000, 124.000000)" width="76px" height="32px"><g id="Mouth/Grill02" stroke="none" stroke-width="1" fill="none" fill-rule="evenodd"><g id="Grill" transform="translate(14.000000, 10.000000)" fill="#000000"><rect id="Grill-Grin" x="14" y="0" width="6" height="14" rx="2"></rect><rect id="Grill-Grin" x="0" y="0" width="6" height="14" rx="2"></rect><rect id="Grill-Grin" x="28" y="0" width="6" height="14" rx="2"></rect><rect id="Grill-Grin" x="42" y="0" width="6" height="14" rx="2"></rect></g></g></g><g id="Eyes" transform="translate(38.000000, 76.000000)" width="104px" height="48px"><g id="Eyes/Hal" stroke="none" stroke-width="1" fill="none" fill-rule="evenodd"><circle id="9k" fill-opacity="0.4" fill="#FFFFFF" cx="52" cy="24" r="24"></circle><circle id="Hal" fill-opacity="0.8" fill="#000000" cx="52" cy="24" r="20"></circle><path d="M65.4099666,15.2688976 C64.255446,13.4993048 62.7601287,11.9723152 61.0171519,10.7810659 M56.6467057,8.68518644 C55.1761516,8.23958978 53.6160554,8 52,8 C49.9125219,8 47.9184128,8.3997603 46.0900522,9.12690144 M41.0773564,12.308221 C39.5172104,13.7663492 38.2491513,15.5330907 37.37049,17.5111349" id="Bright" stroke-opacity="0.9" stroke="#FFFFFF" stroke-width="2" stroke-linecap="round"></path><circle id="Dave" fill="#C6080C" cx="52" cy="24" r="10"></circle><circle id="I-can't-do-that" fill="#EE9337" cx="52" cy="24" r="4"></circle><circle id="I'm-afraid" fill="#F5F94F" cx="52" cy="24" r="1"></circle></g></g></g></g></g></g></g></svg>