<svg width="300px" height="300px" viewBox="0 0 240 240" version="1.1" xmlns="http://www.w3.org/2000/svg" xmlns:xlink="http://www.w3.org/1999/xlink"><title>Bottt</title><desc>Created with botttsgenerator.com</desc><g id="Bottt" stroke="none" stroke-width="1" fill="none" fill-rule="evenodd"><g id="Circle"><defs><circle id="Circle-path-1" cx="120" cy="120" r="120"></circle><path d="M12,160 C12,226.27417 65.72583,280 132,280 C198.27417,280 252,226.27417 252,160 L264,160 L264,-1.42108547e-14 L-3.19744231e-14,-1.42108547e-14 L-3.19744231e-14,160 L12,160 Z" id="Circle-path-2"></path><path d="M124,144.610951 L124,163 L128,163 L128,163 C167.764502,163 200,195.235498 200,235 L200,244 L0,244 L0,235 C-4.86974701e-15,195.235498 32.235498,163 72,163 L72,163 L76,163 L76,144.610951 C58.7626345,136.422372 46.3722246,119.687011 44.3051388,99.8812385 C38.4803105,99.0577866 34,94.0521096 34,88 L34,74 C34,68.0540074 38.3245733,63.1180731 44,62.1659169 L44,56 L44,56 C44,25.072054 69.072054,5.68137151e-15 100,0 L100,0 L100,0 C130.927946,-5.68137151e-15 156,25.072054 156,56 L156,62.1659169 C161.675427,63.1180731 166,68.0540074 166,74 L166,88 C166,94.0521096 161.51969,99.0577866 155.694861,99.8812385 C153.627775,119.687011 141.237365,136.422372 124,144.610951 Z" id="Circle-path-3"></path></defs><g><g id="Bottt" stroke-width="1" fill-rule="evenodd" mask="url(#Circle-main-2)"><g id="Bottt/Head" stroke="none" stroke-width="1" fill="none" fill-rule="evenodd" transform="translate(30.000000, 33.000000)"><g id="Sides" width="180px" height="76px" transform="translate(0.000000, 66.000000)"><g id="Sides/Square" stroke="none" stroke-width="1" fill="none" fill-rule="evenodd"><path d="M11.5374834,16 L24.4625166,16 C28.4743509,16 29.929139,16.4177153 31.3958057,17.2020972 C32.8624723,17.9864791 34.0135209,19.1375277 34.7979028,20.6041943 C35.5822847,22.070861 36,23.5256491 36,27.5374834 L36,48.4625166 C36,52.4743509 35.5822847,53.929139 34.7979028,55.3958057 C34.0135209,56.8624723 32.8624723,58.0135209 31.3958057,58.7979028 C29.929139,59.5822847 28.4743509,60 24.4625166,60 L11.5374834,60 C7.52564907,60 6.070861,59.5822847 4.60419433,58.7979028 C3.13752767,58.0135209 1.98647908,56.8624723 1.20209717,55.3958057 C0.41771525,53.929139 1.80555915e-16,52.4743509 -3.10752092e-16,48.4625166 L3.10752092e-16,27.5374834 C-1.80555915e-16,23.5256491 0.41771525,22.070861 1.20209717,20.6041943 C1.98647908,19.1375277 3.13752767,17.9864791 4.60419433,17.2020972 C6.070861,16.4177153 7.52564907,16 11.5374834,16 Z M127.537483,16 L140.462517,16 C144.474351,16 145.929139,16.4177153 147.395806,17.2020972 C148.862472,17.9864791 150.013521,19.1375277 150.797903,20.6041943 C151.582285,22.070861 152,23.5256491 152,27.5374834 L152,48.4625166 C152,52.4743509 151.582285,53.929139 150.797903,55.3958057 C150.013521,56.8624723 148.862472,58.0135209 147.395806,58.7979028 C145.929139,59.5822847 144.474351,60 140.462517,60 L127.537483,60 C123.525649,60 122.070861,59.5822847 120.604194,58.7979028 C119.137528,58.0135209 117.986479,56.8624723 117.202097,55.3958057 C116.417715,53.929139 116,52.4743509 116,48.4625166 L116,27.5374834 C116,23.5256491 116.417715,22.070861 117.202097,20.6041943 C117.986479,19.1375277 119.137528,17.9864791 120.604194,17.2020972 C122.070861,16.4177153 123.525649,16 127.537483,16 Z" id="Sides/Square-path"></path><g id="Ears" transform="translate(14.000000, 0.000000)"><mask id="Sides/Square-mask" fill="white"><use xlink:href="#Sides/Square-path"></use></mask><use fill="#0076DE" xlink:href="#Sides/Square-path"></use><g id="Brown" mask="url(#Sides/Square-mask)" fill="#795548"><g transform="translate(-14.000000, 0.000000)"><rect x="0" y="0" width="180" height="76"></rect></g></g><rect id="Shadow" fill-opacity="0.1" fill="#000000" mask="url(#Sides/Square-mask)" x="-14" y="38" width="180" height="38"></rect></g></g></g><g id="Top" transform="translate(41.000000, 0.000000)" width="100px" height="52px"><g id="Top/AntennaCrooked" stroke="none" stroke-width="1" fill="none" fill-rule="evenodd"><path d="M15.5683097,27 L24,27 L24,40 L7.10542736e-15,40 L7.10542736e-15,27 L12.0880581,27 L14.1789906,22.5630665 L8.12882501,12.1305168 L11.3538641,0.294936464 L14.2483322,1.08364073 L11.352836,11.7098307 L17.5437409,22.3850631 L15.5683097,27 Z" id="Top/AntennaCrooked-path"></path><g id="Antenna" transform="translate(38.000000, 12.000000)"><mask id="Top/AntennaCrooked-mask" fill="white"><use xlink:href="#Top/AntennaCrooked-path"></use></mask><use fill="#E6E6E6" fill-rule="nonzero" xlink:href="#Top/AntennaCrooked-path"></use><g id="BlueGrey" mask="url(#Top/AntennaCrooked-mask)" fill="#607D8B"><g transform="translate(-38.000000, -12.000000)"><rect x="0" y="0" width="100" height="52"></rect></g></g><rect id="Lite" fill-opacity="0.2" fill="#FFFFFF" mask="url(#Top/AntennaCrooked-mask)" x="0" y="27" width="24" height="13"></rect></g><circle id="Beep-Boop" fill="#FFE65C" cx="50" cy="8" r="8"></circle><circle id="Beep-Boop" fill="#FFFFFF" cx="53" cy="5" r="3"></circle></g></g><g id="Face" transform="translate(25.000000, 44.000000)" width="130px" height="120px"><g id="Face/Round-01" stroke="none" stroke-width="1" fill="none" fill-rule="evenodd"><path d="M66,0 C124.351567,0 130.000727,40.6854074 130,78 C129.999351,111.314593 104.534073,120 66,120 C28.5386545,120 2.20992466e-15,111.314593 0,78 C0,40.6854074 7.64843282,6.59631323e-15 66,0 Z" id="Face/Round-01-path"></path><mask id="Face/Round-01-mask" fill="white"><use xlink:href="#Face/Round-01-path"></use></mask><use id="Path-2" fill-opacity="0.8" fill="#000000" xlink:href="#Face/Round-01-path"></use><g id="DeepPurple" mask="url(#Face/Round-01-mask)" fill="#673AB7"><g transform="translate(-4.000000, -2.000000)"><rect x="0" y="0" width="138" height="124"></rect></g></g><g id="Texture/Circuits" mask="url(#Face/Round-01-mask)" stroke="none" stroke-width="1" fill="none" fill-rule="evenodd"><path d="M72.4160437,34 L23,34 L19,34 L19,0 L23,0 L23,30 L72.4160437,30 C73.1876003,28.2340952 74.949681,27 77,27 C79.7614237,27 82,29.2385763 82,32 C82,34.7614237 79.7614237,37 77,37 C74.949681,37 73.1876003,35.7659048 72.4160437,34 Z M11,0 L15,0 L15,18 L11,18 L11,0 Z" id="Beep-Boop" fill-opacity="0.1" fill="#000000"></path><path d="M122,34.5839563 L122,60 L141,60 L141,64 L122,64 L118,64 L118,34.5839563 C116.234095,33.8123997 115,32.050319 115,30 C115,27.2385763 117.238576,25 120,25 C122.761424,25 125,27.2385763 125,30 C125,32.050319 123.765905,33.8123997 122,34.5839563 Z" id="Beep-Boop" fill-opacity="0.2" fill="#FFFFFF"></path><path d="M114,68 L141,68 L141,72 L114,72 L110,72 L110,46 L114,46 L114,68 Z" id="Beep-Boop" fill-opacity="0.2" fill="#000000"></path><path d="M15,103.583956 L15,129 L34,129 L34,133 L15,133 L11,133 L11,103.583956 C9.23409522,102.8124 8,101.050319 8,99 C8,96.2385763 10.2385763,94 13,94 C15.7614237,94 18,96.2385763 18,99 C18,101.050319 16.7659048,102.8124 15,103.583956 Z" id="Beep-Boop" fill-opacity="0.2" fill="#000000" transform="translate(21.000000, 113.500000) scale(-1, 1) translate(-21.000000, -113.500000) "></path></g></g></g><g id="Mouth" transform="translate(52.000000, 124.000000)" width="76px" height="32px"><g id="Mouth/Smile02" stroke="none" stroke-width="1" fill="none" fill-rule="evenodd"><path d="M18,10.2222222 C18,21.7845222 24.4740576,28 38,28 C51.5182433,28 58,21.6614595 58,10.2222222 C58,9.49621891 57.1738581,8 55,8 C39.2707408,8 29.1916598,8 21,8 C18.9490269,8 18,9.38479408 18,10.2222222 Z" id="Mouth/Smile02-path"></path><mask id="Mouth/Smile02-mask" fill="white"><use xlink:href="#Mouth/Smile02-path"></use></mask><use id="Mouth" fill-opacity="0.8" fill="#000000" xlink:href="#Mouth/Smile02-path"></use><rect id="Teeth" fill="#FFFFFF" mask="url(#Mouth/Smile02-mask)" x="30" y="2" width="16" height="14" rx="2"></rect></g></g><g id="Eyes" transform="translate(38.000000, 76.000000)" width="104px" height="48px"><g id="Eyes/Round-Frame-01" stroke="none" stroke-width="1" fill="none" fill-rule="evenodd"><rect id="Container" fill-opacity="0.8" fill="#000000" x="0" y="12" width="104" height="32" rx="16"></rect><rect id="Eye" fill="#F4F4F4" x="24" y="22" width="10" height="12" rx="2"></rect><rect id="Eye" fill="#F4F4F4" x="70" y="22" width="10" height="12" rx="2"></rect></g></g></g></g></g></g></g></svg>