<svg width="300px" height="300px" viewBox="0 0 240 240" version="1.1" xmlns="http://www.w3.org/2000/svg" xmlns:xlink="http://www.w3.org/1999/xlink"><title>Bottt</title><desc>Created with botttsgenerator.com</desc><g id="Bottt" stroke="none" stroke-width="1" fill="none" fill-rule="evenodd"><g id="Circle"><defs><circle id="Circle-path-1" cx="120" cy="120" r="120"></circle><path d="M12,160 C12,226.27417 65.72583,280 132,280 C198.27417,280 252,226.27417 252,160 L264,160 L264,-1.42108547e-14 L-3.19744231e-14,-1.42108547e-14 L-3.19744231e-14,160 L12,160 Z" id="Circle-path-2"></path><path d="M124,144.610951 L124,163 L128,163 L128,163 C167.764502,163 200,195.235498 200,235 L200,244 L0,244 L0,235 C-4.86974701e-15,195.235498 32.235498,163 72,163 L72,163 L76,163 L76,144.610951 C58.7626345,136.422372 46.3722246,119.687011 44.3051388,99.8812385 C38.4803105,99.0577866 34,94.0521096 34,88 L34,74 C34,68.0540074 38.3245733,63.1180731 44,62.1659169 L44,56 L44,56 C44,25.072054 69.072054,5.68137151e-15 100,0 L100,0 L100,0 C130.927946,-5.68137151e-15 156,25.072054 156,56 L156,62.1659169 C161.675427,63.1180731 166,68.0540074 166,74 L166,88 C166,94.0521096 161.51969,99.0577866 155.694861,99.8812385 C153.627775,119.687011 141.237365,136.422372 124,144.610951 Z" id="Circle-path-3"></path></defs><g><g id="Bottt" stroke-width="1" fill-rule="evenodd" mask="url(#Circle-main-2)"><g id="Bottt/Head" stroke="none" stroke-width="1" fill="none" fill-rule="evenodd" transform="translate(30.000000, 33.000000)"><g id="Sides" width="180px" height="76px" transform="translate(0.000000, 66.000000)"><g id="Sides/Round" stroke="none" stroke-width="1" fill="none" fill-rule="evenodd"><path d="M152,61 C141.954305,61 132,50.9264069 132,39 C132,26.0735931 141.954305,16 152,16 C162.045695,16 168,26.0735931 168,39 C168,50.9264069 162.045695,61 152,61 Z M28,61 C17.954305,61 12,50.9264069 12,39 C12,26.0735931 17.954305,16 28,16 C38.045695,16 48,26.0735931 48,39 C48,50.9264069 38.045695,61 28,61 Z" id="Sides/Round-path"></path><mask id="Sides/Round-mask" fill="white"><use xlink:href="#Sides/Round-path"></use></mask><use id="muffs" fill="#E1E6E8" xlink:href="#Sides/Round-path"></use><g id="Green" mask="url(#Sides/Round-mask)" fill="#4CAF50"><rect x="0" y="0" width="180" height="76"></rect></g><rect id="Shady-Stuff" fill-opacity="0.2" fill="#000000" mask="url(#Sides/Round-mask)" x="20" y="0" width="140" height="76"></rect></g></g><g id="Top" transform="translate(41.000000, 0.000000)" width="100px" height="52px"><g id="Top/Lights" stroke="none" stroke-width="1" fill="none" fill-rule="evenodd"><defs><path d="M56,18 L56,5 C56,2.23857625 58.2385763,5.07265313e-16 61,0 L67,0 C69.7614237,-5.07265313e-16 72,2.23857625 72,5 L72,18 L78,18 C79.1045695,18 80,18.8954305 80,20 L80,30 L0,30 L0,20 C-1.3527075e-16,18.8954305 0.8954305,18 2,18 L8,18 L8,5 C8,2.23857625 10.2385763,5.07265313e-16 13,0 L19,0 C21.7614237,-5.07265313e-16 24,2.23857625 24,5 L24,18 L32,18 L32,5 C32,2.23857625 34.2385763,5.07265313e-16 37,0 L43,0 C45.7614237,-5.07265313e-16 48,2.23857625 48,5 L48,18 L56,18 Z" id="Top/Lights-path"></path></defs><g id="Bulbs" transform="translate(10.000000, 22.000000)"><mask id="Top/Lights-mask" fill="white"><use xlink:href="#Top/Lights-path"></use></mask><use fill="#E1E6E8" xlink:href="#Top/Lights-path"></use><g id="Pink" mask="url(#Top/Lights-mask)" fill="#E91E63"><g transform="translate(-10.000000, -22.000000)"><rect x="0" y="0" width="100" height="52"></rect></g></g><rect id="Highlite" fill-opacity="0.6" fill="#FFFFFF" mask="url(#Top/Lights-mask)" x="-10" y="-22" width="100" height="40"></rect><rect id="Light" fill-opacity="0.6" fill="#FFFFFF" mask="url(#Top/Lights-mask)" x="14" y="6" width="4" height="8" rx="2"></rect><rect id="Light" fill-opacity="0.6" fill="#FFFFFF" mask="url(#Top/Lights-mask)" x="38" y="6" width="4" height="8" rx="2"></rect><rect id="Light" fill-opacity="0.6" fill="#FFFFFF" mask="url(#Top/Lights-mask)" x="62" y="6" width="4" height="8" rx="2"></rect></g></g></g><g id="Face" transform="translate(25.000000, 44.000000)" width="130px" height="120px"><g id="Face/Round-01" stroke="none" stroke-width="1" fill="none" fill-rule="evenodd"><path d="M66,0 C124.351567,0 130.000727,40.6854074 130,78 C129.999351,111.314593 104.534073,120 66,120 C28.5386545,120 2.20992466e-15,111.314593 0,78 C0,40.6854074 7.64843282,6.59631323e-15 66,0 Z" id="Face/Round-01-path"></path><mask id="Face/Round-01-mask" fill="white"><use xlink:href="#Face/Round-01-path"></use></mask><use id="Path-2" fill-opacity="0.8" fill="#000000" xlink:href="#Face/Round-01-path"></use><g id="Indigo" mask="url(#Face/Round-01-mask)" fill="#3F51B5"><g transform="translate(-4.000000, -2.000000)"><rect x="0" y="0" width="138" height="124"></rect></g></g><g id="Texture/None" mask="url(#Face/Round-01-mask)" stroke="none" stroke-width="1" fill="none" fill-rule="evenodd"></g></g></g><g id="Mouth" transform="translate(52.000000, 124.000000)" width="76px" height="32px"><g id="Mouth/Square-01" stroke="none" stroke-width="1" fill="none" fill-rule="evenodd"><rect id="Beep-Boop" fill="#000000" x="24" y="6" width="27" height="8" rx="4"></rect></g></g><g id="Eyes" transform="translate(38.000000, 76.000000)" width="104px" height="48px"><g id="Eyes/Bulging-😳" stroke="none" stroke-width="1" fill="none" fill-rule="evenodd"><circle id="Container" fill-opacity="0.2" fill="#000000" cx="28" cy="24" r="18"></circle><circle id="Container" fill-opacity="0.2" fill="#000000" cx="74" cy="24" r="18"></circle><circle id="Cornea" fill="#F1EEDA" cx="28" cy="24" r="15"></circle><circle id="Cornea" fill="#F1EEDA" cx="74" cy="24" r="15"></circle><rect id="Iris" fill-opacity="0.8" fill="#000000" x="26" y="15" width="10" height="10" rx="2"></rect><rect id="Iris" fill-opacity="0.8" fill="#000000" x="74" y="15" width="10" height="10" rx="2"></rect></g></g></g></g></g></g></g></svg>