<svg width="300px" height="300px" viewBox="0 0 240 240" version="1.1" xmlns="http://www.w3.org/2000/svg" xmlns:xlink="http://www.w3.org/1999/xlink"><title>Bottt</title><desc>Created with botttsgenerator.com</desc><g id="Bottt" stroke="none" stroke-width="1" fill="none" fill-rule="evenodd"><g id="Circle"><defs><circle id="Circle-path-1" cx="120" cy="120" r="120"></circle><path d="M12,160 C12,226.27417 65.72583,280 132,280 C198.27417,280 252,226.27417 252,160 L264,160 L264,-1.42108547e-14 L-3.19744231e-14,-1.42108547e-14 L-3.19744231e-14,160 L12,160 Z" id="Circle-path-2"></path><path d="M124,144.610951 L124,163 L128,163 L128,163 C167.764502,163 200,195.235498 200,235 L200,244 L0,244 L0,235 C-4.86974701e-15,195.235498 32.235498,163 72,163 L72,163 L76,163 L76,144.610951 C58.7626345,136.422372 46.3722246,119.687011 44.3051388,99.8812385 C38.4803105,99.0577866 34,94.0521096 34,88 L34,74 C34,68.0540074 38.3245733,63.1180731 44,62.1659169 L44,56 L44,56 C44,25.072054 69.072054,5.68137151e-15 100,0 L100,0 L100,0 C130.927946,-5.68137151e-15 156,25.072054 156,56 L156,62.1659169 C161.675427,63.1180731 166,68.0540074 166,74 L166,88 C166,94.0521096 161.51969,99.0577866 155.694861,99.8812385 C153.627775,119.687011 141.237365,136.422372 124,144.610951 Z" id="Circle-path-3"></path></defs><g><g id="Bottt" stroke-width="1" fill-rule="evenodd" mask="url(#Circle-main-2)"><g id="Bottt/Head" stroke="none" stroke-width="1" fill="none" fill-rule="evenodd" transform="translate(30.000000, 33.000000)"><g id="Sides" width="180px" height="76px" transform="translate(0.000000, 66.000000)"><g id="Sides/Square" stroke="none" stroke-width="1" fill="none" fill-rule="evenodd"><path d="M11.5374834,16 L24.4625166,16 C28.4743509,16 29.929139,16.4177153 31.3958057,17.2020972 C32.8624723,17.9864791 34.0135209,19.1375277 34.7979028,20.6041943 C35.5822847,22.070861 36,23.5256491 36,27.5374834 L36,48.4625166 C36,52.4743509 35.5822847,53.929139 34.7979028,55.3958057 C34.0135209,56.8624723 32.8624723,58.0135209 31.3958057,58.7979028 C29.929139,59.5822847 28.4743509,60 24.4625166,60 L11.5374834,60 C7.52564907,60 6.070861,59.5822847 4.60419433,58.7979028 C3.13752767,58.0135209 1.98647908,56.8624723 1.20209717,55.3958057 C0.41771525,53.929139 1.80555915e-16,52.4743509 -3.10752092e-16,48.4625166 L3.10752092e-16,27.5374834 C-1.80555915e-16,23.5256491 0.41771525,22.070861 1.20209717,20.6041943 C1.98647908,19.1375277 3.13752767,17.9864791 4.60419433,17.2020972 C6.070861,16.4177153 7.52564907,16 11.5374834,16 Z M127.537483,16 L140.462517,16 C144.474351,16 145.929139,16.4177153 147.395806,17.2020972 C148.862472,17.9864791 150.013521,19.1375277 150.797903,20.6041943 C151.582285,22.070861 152,23.5256491 152,27.5374834 L152,48.4625166 C152,52.4743509 151.582285,53.929139 150.797903,55.3958057 C150.013521,56.8624723 148.862472,58.0135209 147.395806,58.7979028 C145.929139,59.5822847 144.474351,60 140.462517,60 L127.537483,60 C123.525649,60 122.070861,59.5822847 120.604194,58.7979028 C119.137528,58.0135209 117.986479,56.8624723 117.202097,55.3958057 C116.417715,53.929139 116,52.4743509 116,48.4625166 L116,27.5374834 C116,23.5256491 116.417715,22.070861 117.202097,20.6041943 C117.986479,19.1375277 119.137528,17.9864791 120.604194,17.2020972 C122.070861,16.4177153 123.525649,16 127.537483,16 Z" id="Sides/Square-path"></path><g id="Ears" transform="translate(14.000000, 0.000000)"><mask id="Sides/Square-mask" fill="white"><use xlink:href="#Sides/Square-path"></use></mask><use fill="#0076DE" xlink:href="#Sides/Square-path"></use><g id="LightGreen" mask="url(#Sides/Square-mask)" fill="#8BC34A"><g transform="translate(-14.000000, 0.000000)"><rect x="0" y="0" width="180" height="76"></rect></g></g><rect id="Shadow" fill-opacity="0.1" fill="#000000" mask="url(#Sides/Square-mask)" x="-14" y="38" width="180" height="38"></rect></g></g></g><g id="Top" transform="translate(41.000000, 0.000000)" width="100px" height="52px"><g id="Top/Pyramid" stroke="none" stroke-width="1" fill="none" fill-rule="evenodd"><defs><polygon id="Top/Pyramid-path" points="50 8 82 52 18 52"></polygon></defs><mask id="Top/Pyramid-mask" fill="white"><use xlink:href="#Top/Pyramid-path"></use></mask><use id="Triangle" fill="#E1E6E8" xlink:href="#Top/Pyramid-path"></use><g id="Brown" mask="url(#Top/Pyramid-mask)" fill="#795548"><rect x="0" y="0" width="100" height="52"></rect></g><rect id="Highlight" fill-opacity="0.8" fill="#FFFFFF" mask="url(#Top/Pyramid-mask)" x="50" y="4" width="30" height="48"></rect></g></g><g id="Face" transform="translate(25.000000, 44.000000)" width="130px" height="120px"><g id="Face/Arturito-🌌" stroke="none" stroke-width="1" fill="none" fill-rule="evenodd"><defs><path d="M60,0 L70,0 C103.137085,-6.08718376e-15 130,26.862915 130,60 L130,116 C130,118.209139 128.209139,120 126,120 L4,120 C1.790861,120 2.705415e-16,118.209139 0,116 L0,60 C-4.05812251e-15,26.862915 26.862915,6.08718376e-15 60,0 Z" id="Face/Arturito-🌌-path"></path></defs><mask id="Face/Arturito-🌌-mask" fill="white"><use xlink:href="#Face/Arturito-🌌-path"></use></mask><use id="R2" fill="#E1E6E8" xlink:href="#Face/Arturito-🌌-path"></use><g id="LightBlue" mask="url(#Face/Arturito-🌌-mask)" fill="#03A9F4"><g transform="translate(-1.000000, -1.000000)"><rect x="0" y="0" width="132" height="122"></rect></g></g><polygon id="Color-Bar" fill-opacity="0.8" fill="#0040AE" mask="url(#Face/Arturito-🌌-mask)" points="0 80 10 80 10 107 0 107"></polygon><polygon id="Color-Bar" fill-opacity="0.8" fill="#0040AE" mask="url(#Face/Arturito-🌌-mask)" points="0 111 130 111 130 116 0 116"></polygon><rect id="Color-Bar" fill-opacity="0.8" fill="#0040AE" mask="url(#Face/Arturito-🌌-mask)" x="121" y="80" width="9" height="27"></rect><rect id="Color-Bar" fill-opacity="0.8" fill="#0040AE" mask="url(#Face/Arturito-🌌-mask)" x="7.3" y="8" width="54.9" height="16.1834862"></rect><rect id="Color-Bar" fill-opacity="0.8" fill="#0040AE" mask="url(#Face/Arturito-🌌-mask)" x="65.8" y="8" width="54.9" height="16.1834862"></rect><g id="Texture/Dirty02" mask="url(#Face/Arturito-🌌-mask)" stroke="none" stroke-width="1" fill="none" fill-rule="evenodd"><path d="M-20,124.648555 C-16.811588,107.308454 -10.4531676,122.072947 4.84771523,119.016505 C11.6077,117.666158 6.14576431,111.768624 11.1876378,109.212567 C15.4464179,107.053511 21.2501186,108.793137 26.1285392,107.396795 C33.1688379,105.381661 33.076295,101.28213 39.6361103,100.669432 C45.8396348,100.090012 52.3384005,101.99941 58.5951182,101.28213 C70.4032792,99.9284239 65.5617357,82.0585087 74.4165368,78.902488 C83.2713379,75.7464674 97.8495674,81.1967462 99.7578423,90.1316754 C100.99805,95.938581 97.4744737,109.645353 89.187112,131.251992 L-20,131.251992" id="so-dirty" fill-opacity="0.2" fill="#000000" transform="translate(40.000000, 104.625996) scale(-1, 1) translate(-40.000000, -104.625996) "></path><path d="M-10,116.766616 C41.2432666,116.766616 46.5780646,90.9746332 71.7908251,79.1581974 C97.0035857,67.3417617 119.094139,97.9048577 127.570214,68.2121722 C133.220931,48.4170485 136.030775,69.3704236 135.999746,131.072298 L-10,131.072298 L-10,116.766616 Z" id="so-dirty" fill-opacity="0.1" fill="#000000" transform="translate(63.000000, 96.036149) scale(-1, 1) translate(-63.000000, -96.036149) "></path><path d="M81.2916974,3.17587305 C93.2275238,2.20079242 86.321669,13.9842725 91.0371454,13.9842725 C98.0044934,13.9842725 93.1398947,6.00620803 101.62,6.20478012 C103.83957,6.25675408 106.563717,8.14434394 106.732126,10.7089898 C107.093966,16.2193464 103.015188,25.7252553 108.570487,25.9952874 C113.749725,26.2470398 109.673776,16.3561956 110.214935,9.75934414 C110.524385,5.98709048 114.397472,3.0074528 117.183163,3.0074528 C124.754416,3.0074528 118.868741,18.7147098 124.318032,18.7147098 C129.767324,18.7147098 125.526609,9.66391004 129.399805,4.87149468 C133.902864,-0.700269812 148.699526,-3.44094345 138.149179,-6 L81,-6" id="so-dirty" fill-opacity="0.4" fill="#000000" transform="translate(111.433379, 10.000000) scale(-1, 1) translate(-111.433379, -10.000000) "></path></g></g></g><g id="Mouth" transform="translate(52.000000, 124.000000)" width="76px" height="32px"><g id="Mouth/Grill02" stroke="none" stroke-width="1" fill="none" fill-rule="evenodd"><g id="Grill" transform="translate(14.000000, 10.000000)" fill="#000000"><rect id="Grill-Grin" x="14" y="0" width="6" height="14" rx="2"></rect><rect id="Grill-Grin" x="0" y="0" width="6" height="14" rx="2"></rect><rect id="Grill-Grin" x="28" y="0" width="6" height="14" rx="2"></rect><rect id="Grill-Grin" x="42" y="0" width="6" height="14" rx="2"></rect></g></g></g><g id="Eyes" transform="translate(38.000000, 76.000000)" width="104px" height="48px"><g id="Eyes/Shades" stroke="none" stroke-width="1" fill="none" fill-rule="evenodd"><path d="M82.8310869,34 C78.274254,34.204594 75.2818899,35.6397034 73.8539945,38.3053279 C72.6354507,40.5801306 70.2641433,41.9999868 67.6835279,41.9999882 L52,42 L36.9013298,41.9999891 C34.0681565,41.9999875 31.4462964,40.5014832 30.0083339,38.0603493 C28.5305922,35.551685 25.5841186,34.1982352 21.1689131,34 L8,34 C3.581722,34 5.41083001e-16,30.418278 0,26 L0,8 C-5.41083001e-16,3.581722 3.581722,8.11624501e-16 8,0 L96,0 C100.418278,-8.11624501e-16 104,3.581722 104,8 L104,26 C104,30.418278 100.418278,34 96,34 L82.8310869,34 Z" id="Eyes/Shades-path"></path><mask id="Eyes/Shades-mask" fill="white"><use xlink:href="#Eyes/Shades-path"></use></mask><use id="Container" fill-opacity="0.8" fill="#000000" xlink:href="#Eyes/Shades-path"></use><path d="M74.8310869,24 C70.2742542,24.204594 67.2818901,25.6397032 65.8539947,28.3053276 C64.6854389,30.4868112 62.4567598,31.8820547 60,31.9928601 L60,32 L44.9013298,31.9999891 C42.0681565,31.9999875 39.4462964,30.5014832 38.0083339,28.0603493 C36.5305922,25.551685 33.5841186,24.1982352 29.1689131,24 L17,24 C14.2385763,24 12,21.7614237 12,19 L12,17 C12,14.2385763 14.2385763,12 17,12 L87,12 C89.7614237,12 92,14.2385763 92,17 L92,19 C92,21.7614237 89.7614237,24 87,24 L74.8310869,24 Z" id="Aww-Yeahh" fill="#FF3D3D" mask="url(#Eyes/Shades-mask)"></path><path d="M39,-4 L50,-4 L30,42 L19,42 L39,-4 Z M28,-4 L32,-4 L12,42 L8,42 L28,-4 Z" id="Highlight" fill-opacity="0.2" fill="#FFFFFF" mask="url(#Eyes/Shades-mask)"></path></g></g></g></g></g></g></g></svg>