<svg xmlns="http://www.w3.org/2000/svg" xmlns:xlink="http://www.w3.org/1999/xlink" viewBox="0 0 64 64"><defs><linearGradient id="sic0AZ-Q0TV7pfCkL_i3pb" x1="32" x2="32" y1="1.304" y2="63.304" gradientUnits="userSpaceOnUse"><stop offset="0" stop-color="#ffe100"></stop><stop offset="1" stop-color="#f98900"></stop></linearGradient><linearGradient id="sic0AZ-Q0TV7pfCkL_i3pa" x1="43" x2="43" y1="29.725" y2="20.193" gradientUnits="userSpaceOnUse"><stop offset=".005" stop-color="#414d4d"></stop><stop offset=".206" stop-color="#3a4545"></stop><stop offset=".522" stop-color="#272e2e"></stop><stop offset=".914" stop-color="#080909"></stop><stop offset="1"></stop></linearGradient><linearGradient id="sic0AZ-Q0TV7pfCkL_i3pc" x1="21" x2="21" y1="29.856" y2="20.875" xlink:href="#sic0AZ-Q0TV7pfCkL_i3pa"></linearGradient></defs><g data-name="12-Slightly Frowning Face"><path fill="url(#sic0AZ-Q0TV7pfCkL_i3pb)" d="M32,63C4.3,63,.962,39,1,33V31C.962,25,4.3,1,32,1h0C59.7,1,63.038,25,63,31v2C63.038,39,59.7,63,32,63Z"></path><ellipse cx="43" cy="25" fill="url(#sic0AZ-Q0TV7pfCkL_i3pa)" rx="3" ry="5"></ellipse><ellipse cx="21" cy="25" fill="url(#sic0AZ-Q0TV7pfCkL_i3pc)" rx="3" ry="5"></ellipse><path fill="#1d1d1b" d="M55.9,12.6c-.5-.667-1.034-1.315-1.59-1.926l1.478-1.347c.6.659,1.176,1.357,1.713,2.074Z"></path><path fill="#1d1d1b" d="M7.318,53.636C.131,44.909-.008,34.187,0,32.994V31C-.033,26.046,1.83,15.72,9.022,8.479,14.611,2.853,22.342,0,32,0c8.913,0,16.2,2.439,21.671,7.249l-1.32,1.5C47.259,4.271,40.412,2,32,2,22.9,2,15.641,4.654,10.441,9.889,3.712,16.663,1.969,26.342,2,30.993V33A32.612,32.612,0,0,0,8.861,52.364Z"></path><path fill="#1d1d1b" d="M32,64c-9.5,0-17.132-2.76-22.7-8.2l1.4-1.43C15.88,59.432,23.046,62,32,62c9.1,0,16.359-2.654,21.559-7.889,6.729-6.774,8.472-16.453,8.441-21.1V30.89a33.509,33.509,0,0,0-4.789-16.362l1.7-1.056A35.483,35.483,0,0,1,64,30.89V33c.033,4.954-1.83,15.28-9.022,22.521C49.389,61.147,41.658,64,32,64Z"></path><path fill="#1d1d1b" d="M43,31c-2.243,0-4-2.636-4-6s1.757-6,4-6,4,2.636,4,6S45.243,31,43,31Zm0-10c-.944,0-2,1.71-2,4s1.056,4,2,4,2-1.71,2-4S43.944,21,43,21Z"></path><path fill="#1d1d1b" d="M21,31c-2.243,0-4-2.636-4-6s1.757-6,4-6,4,2.636,4,6S23.243,31,21,31Zm0-10c-.944,0-2,1.71-2,4s1.056,4,2,4,2-1.71,2-4S21.944,21,21,21Z"></path><path fill="#1d1d1b" d="M19.961,48.277l-1.924-.548c.047-.165,1.192-4.058,6.1-6.73a16.386,16.386,0,0,1,15.732,0c4.905,2.672,6.05,6.565,6.1,6.73l-1.926.542c-.037-.127-1-3.268-5.128-5.515a14.383,14.383,0,0,0-13.818,0C20.964,45,20,48.144,19.961,48.277Z"></path></g></svg>