<svg xmlns="http://www.w3.org/2000/svg" xmlns:xlink="http://www.w3.org/1999/xlink" viewBox="0 0 64 64"><defs><linearGradient id="ct7yLMiyzcm1uMP_fdXOrb" x1="32" x2="32" y1="1.304" y2="63.304" gradientUnits="userSpaceOnUse"><stop offset="0" stop-color="#ffe100"></stop><stop offset="1" stop-color="#f98900"></stop></linearGradient><linearGradient id="ct7yLMiyzcm1uMP_fdXOra" x1="15" x2="49" y1="45" y2="45" gradientUnits="userSpaceOnUse"><stop offset="0" stop-color="#b8b4b2"></stop><stop offset=".143" stop-color="#d0ccc9"></stop><stop offset=".374" stop-color="#f2edea"></stop><stop offset=".5" stop-color="#fffaf6"></stop><stop offset=".638" stop-color="#f9f5f1"></stop><stop offset=".825" stop-color="#e8e5e3"></stop><stop offset="1" stop-color="#d1d1d1"></stop></linearGradient><linearGradient id="ct7yLMiyzcm1uMP_fdXOrc" y1="39" y2="39" xlink:href="#ct7yLMiyzcm1uMP_fdXOra"></linearGradient><linearGradient id="ct7yLMiyzcm1uMP_fdXOrd" x1="32" x2="32" y1="47.95" y2="36.024" gradientUnits="userSpaceOnUse"><stop offset="0" stop-color="#d1d1d1" stop-opacity="0"></stop><stop offset=".05" stop-color="#cecece" stop-opacity=".041"></stop><stop offset=".322" stop-color="#c1c1c1" stop-opacity=".24"></stop><stop offset=".579" stop-color="#b8b8b8" stop-opacity=".383"></stop><stop offset=".812" stop-color="#b2b2b2" stop-opacity=".47"></stop><stop offset="1" stop-color="#b0b0b0" stop-opacity=".5"></stop></linearGradient><linearGradient id="ct7yLMiyzcm1uMP_fdXOre" x1="32" x2="32" y1="36.625" y2="42.479" gradientUnits="userSpaceOnUse"><stop offset="0" stop-color="#ababab" stop-opacity=".5"></stop><stop offset=".541" stop-color="#c1c1c1" stop-opacity=".216"></stop><stop offset="1" stop-color="#d1d1d1" stop-opacity="0"></stop></linearGradient></defs><g data-name="24-Grimacing Face"><path fill="url(#ct7yLMiyzcm1uMP_fdXOrb)" d="M32,63C4.3,63,.962,39,1,33V31C.962,25,4.3,1,32,1h0C59.7,1,63.038,25,63,31v2C63.038,39,59.7,63,32,63Z"></path><path fill="url(#ct7yLMiyzcm1uMP_fdXOra)" d="M21,48H43a6,6,0,0,0,6-6H15A6,6,0,0,0,21,48Z"></path><path fill="url(#ct7yLMiyzcm1uMP_fdXOrc)" d="M43,36H21a6,6,0,0,0-6,6H49A6,6,0,0,0,43,36Z"></path><path fill="url(#ct7yLMiyzcm1uMP_fdXOrd)" d="M43,36H21a6,6,0,0,0,0,12H43a6,6,0,0,0,0-12Z"></path><path fill="url(#ct7yLMiyzcm1uMP_fdXOre)" d="M43,36H21a6,6,0,0,0-6,6H49A6,6,0,0,0,43,36Z"></path><path fill="#1d1d1b" d="M55.9,12.6c-.5-.669-1.036-1.317-1.59-1.925l1.478-1.348c.6.656,1.174,1.355,1.713,2.075Z"></path><path fill="#1d1d1b" d="M7.318,53.636C.131,44.909-.008,34.188,0,32.993V31C-.033,26.047,1.83,15.72,9.022,8.479,14.611,2.853,22.342,0,32,0c8.913,0,16.2,2.439,21.671,7.249l-1.32,1.5C47.259,4.271,40.412,2,32,2,22.9,2,15.641,4.654,10.441,9.889,3.712,16.663,1.969,26.342,2,30.993V33c-.026,4.069,1.389,12.719,6.861,19.364Z"></path><path fill="#1d1d1b" d="M32,64c-9.5,0-17.132-2.76-22.7-8.2l1.4-1.43C15.88,59.432,23.046,62,32,62c9.1,0,16.359-2.654,21.559-7.889,6.729-6.774,8.472-16.453,8.441-21.1V30.89a33.509,33.509,0,0,0-4.789-16.362l1.7-1.056A35.483,35.483,0,0,1,64,30.89V33c.033,4.953-1.83,15.28-9.022,22.521C49.389,61.147,41.658,64,32,64Z"></path><path fill="#1d1d1b" d="M43,49H21a7,7,0,0,1,0-14H43a7,7,0,0,1,0,14ZM21,37a5,5,0,0,0,0,10H43a5,5,0,0,0,0-10Z"></path><rect width="34" height="2" x="15" y="41" fill="#1d1d1b"></rect><path fill="#1d1d1b" d="M38.969,25.247l-1.939-.489a6.124,6.124,0,0,1,11.94,0l-1.94.484C47,25.114,46.149,22,43,22S39,25.114,38.969,25.247Z"></path><path fill="#1d1d1b" d="M16.969,25.247l-1.939-.489a6.124,6.124,0,0,1,11.94,0l-1.94.484C25,25.114,24.149,22,21,22S17,25.114,16.969,25.247Z"></path></g></svg>