<svg xmlns="http://www.w3.org/2000/svg" viewBox="0 0 64 64"><defs><linearGradient id="Bj-TTTZEoS6Uu6LJnqWPKa" x1="32" x2="32" y1="1.304" y2="63.304" gradientUnits="userSpaceOnUse"><stop offset="0" stop-color="#ffe100"></stop><stop offset="1" stop-color="#f98900"></stop></linearGradient><linearGradient id="Bj-TTTZEoS6Uu6LJnqWPKb" x1="14" x2="50" y1="41.001" y2="41.001" gradientUnits="userSpaceOnUse"><stop offset="0" stop-color="#b8b4b2"></stop><stop offset=".143" stop-color="#d0ccc9"></stop><stop offset=".374" stop-color="#f2edea"></stop><stop offset=".5" stop-color="#fffaf6"></stop><stop offset=".638" stop-color="#f9f5f1"></stop><stop offset=".825" stop-color="#e8e5e3"></stop><stop offset="1" stop-color="#d1d1d1"></stop></linearGradient><linearGradient id="Bj-TTTZEoS6Uu6LJnqWPKc" x1="32" x2="32" y1="53.162" y2="38.895" gradientUnits="userSpaceOnUse"><stop offset="0" stop-color="#69101b"></stop><stop offset="1" stop-color="#400a10"></stop></linearGradient><linearGradient id="Bj-TTTZEoS6Uu6LJnqWPKd" x1="32" x2="32" y1="58.9" y2="42.698" gradientUnits="userSpaceOnUse"><stop offset="0" stop-color="#d10415"></stop><stop offset="1" stop-color="#8f030e"></stop></linearGradient></defs><g data-name="16-Face with Tongue"><path fill="url(#Bj-TTTZEoS6Uu6LJnqWPKa)" d="M32,63C4.3,63,.962,39,1,33V31C.962,25,4.3,1,32,1h0C59.7,1,63.038,25,63,31v2C63.038,39,59.7,63,32,63Z"></path><path fill="url(#Bj-TTTZEoS6Uu6LJnqWPKb)" d="M48.806,37.034a.986.986,0,0,1,1.19,1.1,14.5,14.5,0,0,1-.43,2.46A34.766,34.766,0,0,1,32,45a34.766,34.766,0,0,1-17.566-4.409,14.5,14.5,0,0,1-.43-2.46.986.986,0,0,1,1.19-1.1A63.8,63.8,0,0,0,32,39.4,63.8,63.8,0,0,0,48.806,37.034Z"></path><path fill="url(#Bj-TTTZEoS6Uu6LJnqWPKc)" d="M49.084,42.148A14.847,14.847,0,0,0,50,38.126a.98.98,0,0,0-1.19-1.092A64.117,64.117,0,0,1,32,39.4a64.117,64.117,0,0,1-16.806-2.363A.98.98,0,0,0,14,38.126a14.847,14.847,0,0,0,.912,4.022,15.616,15.616,0,0,0,5.093,6.711A18.8,18.8,0,0,0,32,53a18.8,18.8,0,0,0,11.991-4.141A15.616,15.616,0,0,0,49.084,42.148Z"></path><path fill="url(#Bj-TTTZEoS6Uu6LJnqWPKd)" d="M35,42a22.052,22.052,0,0,1,3.293.274A1.946,1.946,0,0,1,39.581,45.4h0A6.186,6.186,0,0,0,38,49v4a5.9,5.9,0,0,1-6.194,6A5.821,5.821,0,0,1,26,53V49a6.186,6.186,0,0,0-1.581-3.6h0a1.946,1.946,0,0,1,1.288-3.126A22.052,22.052,0,0,1,29,42Z"></path><path fill="#e87400" d="M31.806,59A5.821,5.821,0,0,1,26,53v1.294c0,3.672,2.348,6.593,5.806,6.7,3.578.114,6.194-2.931,6.194-6.7V53A5.9,5.9,0,0,1,31.806,59Z"></path><path fill="#1d1d1b" d="M55.9,12.6c-.5-.667-1.034-1.315-1.59-1.926l1.478-1.347c.6.659,1.176,1.357,1.713,2.074Z"></path><path fill="#1d1d1b" d="M7.318,53.636C.131,44.909-.008,34.188,0,32.994V31C-.033,26.046,1.83,15.72,9.022,8.479,14.611,2.853,22.342,0,32,0c8.913,0,16.2,2.439,21.671,7.249l-1.32,1.5C47.259,4.271,40.412,2,32,2,22.9,2,15.641,4.654,10.441,9.889,3.712,16.663,1.969,26.342,2,30.993V33c-.026,4.069,1.389,12.719,6.861,19.364Z"></path><path fill="#1d1d1b" d="M32,64c-9.5,0-17.132-2.76-22.7-8.2l1.4-1.43C15.88,59.432,23.046,62,32,62c9.1,0,16.359-2.654,21.559-7.889,6.729-6.774,8.472-16.453,8.441-21.1V30.89a33.509,33.509,0,0,0-4.789-16.362l1.7-1.056A35.483,35.483,0,0,1,64,30.89V33c.033,4.953-1.83,15.28-9.022,22.521C49.389,61.147,41.658,64,32,64Z"></path><path fill="#1d1d1b" d="M38.307,53.042l-.614-1.9a18.192,18.192,0,0,0,5.679-3.064,14.586,14.586,0,0,0,4.777-6.282A13.867,13.867,0,0,0,49,38.039,66.575,66.575,0,0,1,32,40.4,65.48,65.48,0,0,1,14.921,38a17.448,17.448,0,0,0,.93,3.795,14.576,14.576,0,0,0,4.775,6.281,18.188,18.188,0,0,0,5.681,3.066l-.614,1.9a20.19,20.19,0,0,1-6.3-3.4,16.558,16.558,0,0,1-5.409-7.14,15.952,15.952,0,0,1-.973-4.292,2.064,2.064,0,0,1,.73-1.773,1.886,1.886,0,0,1,1.73-.368A63.38,63.38,0,0,0,32,38.4a63.38,63.38,0,0,0,16.532-2.324,1.883,1.883,0,0,1,1.73.368,2.064,2.064,0,0,1,.73,1.773,15.968,15.968,0,0,1-.973,4.293,16.558,16.558,0,0,1-5.411,7.14A20.176,20.176,0,0,1,38.307,53.042Z"></path><path fill="#1d1d1b" d="M26,29a.986.986,0,0,1-.274-.039c-.069-.019-6.861-1.927-12.562-.975l-.328-1.972a33.315,33.315,0,0,1,11.76.613c-2.141-5.226-10.764-7.636-10.859-7.662l.526-1.93c.475.13,11.646,3.26,12.727,10.823A1,1,0,0,1,26,29Z"></path><path fill="#1d1d1b" d="M38,29a1,1,0,0,1-.99-1.142C38.091,20.3,49.262,17.165,49.737,17.035l.527,1.93c-.1.026-8.717,2.447-10.859,7.662a33.333,33.333,0,0,1,11.759-.613l-.328,1.972c-5.7-.95-12.493.957-12.562.975A.981.981,0,0,1,38,29Z"></path><path fill="#1d1d1b" d="M32,60l-.222,0A6.8,6.8,0,0,1,25,53V49a5.117,5.117,0,0,0-1.365-2.979,2.888,2.888,0,0,1-.436-2.862,3,3,0,0,1,2.349-1.872A22.788,22.788,0,0,1,29,41h6a22.835,22.835,0,0,1,3.454.287A3,3,0,0,1,40.8,43.159a2.89,2.89,0,0,1-.435,2.862A5.113,5.113,0,0,0,39,49v4a6.9,6.9,0,0,1-7,7ZM29,43a20.668,20.668,0,0,0-3.132.262,1,1,0,0,0-.8.623.892.892,0,0,0,.141.9A6.954,6.954,0,0,1,27,49v4a4.8,4.8,0,0,0,4.834,5,4.911,4.911,0,0,0,3.676-1.374A5,5,0,0,0,37,53V49a6.95,6.95,0,0,1,1.8-4.22.894.894,0,0,0,.14-.9,1,1,0,0,0-.8-.623A20.715,20.715,0,0,0,35,43Z"></path><rect width="2" height="12" x="31" y="42" fill="#1d1d1b"></rect></g></svg>